<?xml version="1.0" encoding="utf-8"?>
<!-- Generator: Adobe Illustrator 28.1.0, SVG Export Plug-In . SVG Version: 6.00 Build 0)  -->
<svg version="1.1" id="_图层_2" xmlns="http://www.w3.org/2000/svg" xmlns:xlink="http://www.w3.org/1999/xlink" x="0px" y="0px"
	 viewBox="0 0 585 580" style="enable-background:new 0 0 585 580;" xml:space="preserve">
<style type="text/css">
	.st0{fill:#DADBCC;}
	.st1{fill:#388683;}
	.st2{fill:#042E2A;}
	.st3{fill:#DBDCCD;}
</style>
<path class="st0" d="M275,0h41l27,3l21,4l28,8l29,12l19,10l18,11l16,12l14,12l13,12l13,14l13,17l10,14l8,13l17,33l8,21l7,24l5,23
	l3,26v45l-5,30l-6,24l-7,21l-8,19l-4,7l-5,10l-5,8l-4,8l-8,11l-7,11l-9,11l-11,13l-12,13l-12,11l-13,10l-14,10l-18,11l-25,13l-29,11
	l-36,9l-26,4l-12,1h-29l-25-2l-18-3l-25-6l-26-9l-20-9l-20-10l-21-14l-16-12l-13-11l-17-17l-18-22l-13-19l-11-18l-12-23l-8-20l-8-25
	l-5-23l-3-21l-1-18v-15l2-24l5-32l10-35l8-20l8-16l6-11l12-19l10-14l12-14l12-13l14-14l14-11l14-10l22-14l24-12l19-7l18-6l25-6l29-4
	L275,0z"/>
<path class="st1" d="M582,243l-5-23l-7-24l-8-21l-17-33l-8-13l-10-14l-13-17l-13-14l-13-12l-14-12l-16-12l-18-11l-19-10l-29-12
	l-28-8l-21-4l-27-3h-41l-11,1l-29,4l-25,6l-18,6l-19,7l-24,12l-22,14l-14,10L99,71L85,85L73,98l-12,14l-10,14l-12,19l-6,11l-8,16
	l-8,20L7,227l-5,32l-2,24v15l1,18l3,21l5,23l8,25l8,20l12,23l11,18l13,19l18,22l17,17l13,11l16,12l21,14l20,10l20,9l26,9l25,6l18,3
	l25,2h29l12-1l26-4l36-9l29-11l25-13l18-11l14-10l13-10l12-11l12-13l11-13l9-11l7-11l8-11l4-8l5-8l5-10l4-7l8-19l7-21l6-24l5-30v-45
	L582,243z M567,305l-2,22l-1,2l-29,1l0.3,0.9c-1-0.8-2.3-1.2-3.7-1L454,341.2l-16-0.2h-81l-7,1l-10,4l-10,7l-12,7l-9,4l-10,2h-11
	l-6-1l-10-4l-14-9l-15-8l-16-2l-79.7-0.5l-86.8-12.6c-0.9-0.1-1.7,0-2.5,0.3V329H21l-2-17v-43l2-17l5-26l7-25l8-21l5-11l10-18l8-13
	l7-10l8-10l9-11l9-9l13-12l13-11l16-12l18-11l17-9l25-10l24-7l34-6l17-2h43l22,3l25,5l24,7l20,8l27,14l15,10l15,11l11,9l15,15l11,12
	l11,14l10,15l10,16l10,20l8,20l8,27l6,29l2,23V305z"/>
<path class="st2" d="M275,0h41l27,3l21,4l28,8l29,12l19,10l18,11l16,12l14,12l13,12l13,14l13,17l10,14l8,13l17,33l8,21l7,24l5,23
	l3,26v45l-5,30l-6,24l-7,21l-8,19l-4,7l-5,10l-5,8l-4,8l-8,11l-7,11l-9,11l-11,13l-12,13l-12,11l-13,10l-14,10l-18,11l-25,13l-29,11
	l-36,9l-26,4l-12,1h-29l-25-2l-18-3l-25-6l-26-9l-20-9l-20-10l-21-14l-16-12l-13-11l-17-17l-18-22l-13-19l-11-18l-12-23l-8-20l-8-25
	l-5-23l-3-21l-1-18v-15l2-24l5-32l10-35l8-20l8-16l6-11l12-19l10-14l12-14l12-13l14-14l14-11l14-10l22-14l24-12l19-7l18-6l25-6l29-4
	L275,0z M274,18l-17,2l-34,6l-24,7l-25,10l-17,9l-18,11l-16,12l-13,11L97,98l-9,9l-9,11l-8,10l-7,10l-8,13l-10,18l-5,11l-8,21l-7,25
	l-5,26l-2,17v43l3,25l9,35l11,27l10,21l14,23l12,16l9,10l7,8l16,16l14,11l10,8l18,11l19,11l30,12l23,7l17,4l33,4h41l36-5l26-7l29-11
	l27-14l19-12l14-11l16-13l1-3l4-2l22-24l12-17l11-18l13-27l8-21l6-19l5-27l2-12l1-13v-29l-2-23l-6-29l-8-27l-8-20l-10-20l-10-16
	l-10-15l-11-14l-11-12l-15-15l-11-9l-15-11l-15-10l-27-14l-20-8l-24-7l-25-5l-22-3H274z"/>
<path class="st3" d="M83,368h140l14,2l17,7l10,7l14,11l7,3h16l12-6l9-7l10-8l15-7l6-2h146l12,1l5,4l1,8l-4,3H356l-11,4l-9,6l-11,10
	l-16,9l-5,1h-20l-11-4l-13-9l-8-7l-15-8l-13-2H79l-5-2l-1-5l4-7L83,368z"/>
<path class="st3" d="M379,412h92l19,1l7,4l3,4l-1,6l-3,2l-17-1H367l-12,2l-8,4l-16,12l-9,7l-12,6l-13,2l-13-1l-11-4l-11-7l-12-10
	l-15-9l-4-1l-36-1h-52l-38,1l-11,2l-4-5v-6l6-5l5-2h122l13,2l16,8l9,6l11,9l12,6l5,1h12l13-4l11-8l11-10l14-7l10-3L379,412z"/>
<path class="st2" d="M436,112l-8-7l-11-6l-15-6l-19-4h-26l-5,1l-14,4l-16,7l-12,7l9-14l8-8l9-6l16-8l24-5l4-5l1-6l-2-3l-6-4h-8
	l-19,5l-13,6l-14,9l-12,12l-10,14l-2,6l-2-1l-6-11l-9-11l-8-7l-11-8l-16-8l-19-5h-11l-2,2l-3,5l1,7l4,4l14,2l10,3l14,7l10,7l12,13
	l4,7l-4-2l-11-6l-15-6l-20-4h-18l-25,6l-18,8l-11,7l-3,7l1,6l4,4h7l15-10l9-4l17-4h25l19,4l9,3l-13,3l-17,6l-16,8l-14,9l-12,10
	l-11,13l-10,14l-8,17l-1,8l5,6h8l3-3l8-19l7-10l7-9l14-12l15-10l15-6l16-5l14-2l-1,2l-5,3l-10,7l-13,13l-8,10l-8,12l-8,16l-7,23
	l-2,15v12l1,4l4,5l7,1l3-2l3-5l1-18l3-18l6-17l7-12l7-10l7-8l9-8l10-8l12-6l-1,76v97.6h-29.9c-3.9,0-7.1,3.2-7.1,7.1
	c0,3.8,3,6.9,6.7,7.1l6.4,4.2l18,10l9,3h16l4-1l17-12l7.9-4.3c1.8-0.3,3.4-1.2,4.5-2.6l1.6-1.1l-0.9,0c0.5-1,0.8-2.1,0.8-3.3
	c0-3.9-3.2-7.1-7.1-7.1H303V146l8,4l16,13l12,13l7,9l6,11l7,17l4,19l1,16l1,4l3,3l7,1l5-4l2-9l-1-18l-3-15l-7-19l-8-14l-8-11l-9-11
	l-11-10l-14-10h5l24,6l19,9l17,12l9,10l9,12l8,17l5,8l8,1l5-4l1-8l-3-9l-8-15l-10-14l-14-14l-14-11l-11-6l-15-6l-15-4l-10-1v-3h2
	l12-4l14-3h20l17,4l11,4l18,11h8l4-5l1-6L436,112z"/>
</svg>
