<?xml version="1.0" encoding="utf-8"?>
<!-- Generator: Adobe Illustrator 28.1.0, SVG Export Plug-In . SVG Version: 6.00 Build 0)  -->
<svg version="1.1" id="_图层_2" xmlns="http://www.w3.org/2000/svg" xmlns:xlink="http://www.w3.org/1999/xlink" x="0px" y="0px"
	 viewBox="0 0 1285.3 580" style="enable-background:new 0 0 1285.3 580;" xml:space="preserve">
<style type="text/css">
	.st0{fill:#DADBCC;}
	.st1{fill:#388683;stroke:#DADBCC;stroke-width:2;stroke-miterlimit:10;}
	.st2{fill:#042E2A;}
	.st3{fill:#DBDCCD;}
	.st4{fill:none;}
	.st5{fill:#388683;}
	.st6{font-family:'BerlinSansFBDemi-Bold';}
	.st7{font-size:203px;}
</style>
<path class="st0" d="M210.8,186.2h12.7l8.4,0.9l6.5,1.2l8.7,2.5l9,3.7l5.9,3.1l5.6,3.4l5,3.7l4.3,3.7l4,3.7l4,4.3l4,5.3l3.1,4.3
	l2.5,4l5.3,10.2l2.5,6.5l2.2,7.4l1.5,7.1l0.9,8.1v13.9l-1.5,9.3l-1.9,7.4l-2.2,6.5l-2.5,5.9l-1.2,2.2l-1.5,3.1l-1.5,2.5l-1.2,2.5
	l-2.5,3.4l-2.2,3.4l-2.8,3.4l-3.4,4l-3.7,4l-3.7,3.4l-4,3.1l-4.3,3.1l-5.6,3.4l-7.7,4l-9,3.4l-11.2,2.8l-8.1,1.2l-3.7,0.3h-9
	l-7.7-0.6l-5.6-0.9l-7.7-1.9l-8.1-2.8L177,357l-6.2-3.1l-6.5-4.3l-5-3.7l-4-3.4l-5.3-5.3l-5.6-6.8l-4-5.9l-3.4-5.6l-3.7-7.1
	l-2.5-6.2l-2.5-7.7l-1.5-7.1l-0.9-6.5l-0.3-5.6v-4.6l0.6-7.4l1.5-9.9l3.1-10.8l2.5-6.2l2.5-5l1.9-3.4l3.7-5.9l3.1-4.3l3.7-4.3l3.7-4
	l4.3-4.3l4.3-3.4l4.3-3.1l6.8-4.3l7.4-3.7l5.9-2.2l5.6-1.9l7.7-1.9l9-1.2L210.8,186.2z"/>
<path class="st1" d="M210.8,186.2h12.7l8.4,0.9l6.5,1.2l8.7,2.5l9,3.7l5.9,3.1l5.6,3.4l5,3.7l4.3,3.7l4,3.7l4,4.3l4,5.3l3.1,4.3
	l2.5,4l5.3,10.2l2.5,6.5l2.2,7.4l1.5,7.1l0.9,8.1v13.9l-1.5,9.3l-1.9,7.4l-2.2,6.5l-2.5,5.9l-1.2,2.2l-1.5,3.1l-1.5,2.5l-1.2,2.5
	l-2.5,3.4l-2.2,3.4l-2.8,3.4l-3.4,4l-3.7,4l-3.7,3.4l-4,3.1l-4.3,3.1l-5.6,3.4l-7.7,4l-9,3.4l-11.2,2.8l-8.1,1.2l-3.7,0.3h-9
	l-7.7-0.6l-5.6-0.9l-7.7-1.9l-8.1-2.8L177,357l-6.2-3.1l-6.5-4.3l-5-3.7l-4-3.4l-5.3-5.3l-5.6-6.8l-4-5.9l-3.4-5.6l-3.7-7.1
	l-2.5-6.2l-2.5-7.7l-1.5-7.1l-0.9-6.5l-0.3-5.6v-4.6l0.6-7.4l1.5-9.9l3.1-10.8l2.5-6.2l2.5-5l1.9-3.4l3.7-5.9l3.1-4.3l3.7-4.3l3.7-4
	l4.3-4.3l4.3-3.4l4.3-3.1l6.8-4.3l7.4-3.7l5.9-2.2l5.6-1.9l7.7-1.9l9-1.2L210.8,186.2z M210.5,191.8l-5.3,0.6l-10.5,1.9l-7.4,2.2
	l-7.7,3.1l-5.3,2.8l-5.6,3.4l-5,3.7l-4,3.4l-4,3.7l-2.8,2.8l-2.8,3.4l-2.5,3.1l-2.2,3.1l-2.5,4l-3.1,5.6l-1.5,3.4l-2.5,6.5l-2.2,7.7
	l-1.5,8.1l-0.6,5.3v13.3l0.6,5.3h11.5v2.8l1.5,0.9l50.8,0.3l5,0.6l4.6,2.5l4.3,2.8l3.1,1.2l1.9,0.3h3.4l3.1-0.6l2.8-1.2l3.7-2.2
	l3.1-2.2l3.1-1.2l2.2-0.3h25.1l27.6,0.3l2.2-0.3l0.6-2.5l-0.3-0.9l9-0.3l0.3-0.6l0.6-6.8v-9l-0.6-7.1l-1.9-9l-2.5-8.4l-2.5-6.2
	l-3.1-6.2l-3.1-5l-3.1-4.6l-3.4-4.3l-3.4-3.7l-4.6-4.6l-3.4-2.8l-4.6-3.4l-4.6-3.1l-8.4-4.3l-6.2-2.5l-7.4-2.2l-7.7-1.5l-6.8-0.9
	H210.5z"/>
<path class="st2" d="M238.7,201.4h2.5l1.9,1.2l0.6,0.9l-0.3,1.9l-1.2,1.5l-7.4,1.5l-5,2.5l-2.8,1.9l-2.5,2.5l-2.8,4.3l3.7-2.2l5-2.2
	l4.3-1.2l1.5-0.3h8.1l5.9,1.2l4.6,1.9l3.4,1.9l2.5,2.2l0.6,1.2L261,224l-1.2,1.5h-2.5l-5.6-3.4l-3.4-1.2l-5.3-1.2h-6.2l-4.3,0.9
	l-3.7,1.2h-0.6v0.9l3.1,0.3l4.6,1.2l4.6,1.9l3.4,1.9l4.3,3.4l4.3,4.3l3.1,4.3l2.5,4.6l0.9,2.8l-0.3,2.5l-1.5,1.2l-2.5-0.3l-1.5-2.5
	l-2.5-5.3l-2.8-3.7l-2.8-3.1l-5.3-3.7l-5.9-2.8l-7.4-1.9H225l4.3,3.1l3.4,3.1l2.8,3.4l2.5,3.4l2.5,4.3l2.2,5.9l0.9,4.6l0.3,5.6
	l-0.6,2.8l-1.5,1.2l-2.2-0.3l-0.9-0.9l-0.3-1.2l-0.3-5l-1.2-5.9l-2.2-5.3l-1.9-3.4l-2.2-2.8l-3.7-4l-5-4l-2.5-1.2v56.1l11.2,0.6
	l-0.9,0.6l-3.4,1.9l-5.3,3.7l-1.2,0.3h-5l-2.8-0.9l-5.6-3.1l-3.7-2.5v-0.3h11.2v-33.2l0.3-23.6l-3.7,1.9l-3.1,2.5l-2.8,2.5l-2.2,2.5
	l-2.2,3.1l-2.2,3.7l-1.9,5.3l-0.9,5.6l-0.3,5.6l-0.9,1.5l-0.9,0.6l-2.2-0.3l-1.2-1.5l-0.3-1.2V259l0.6-4.6l2.2-7.1l2.5-5l2.5-3.7
	l2.5-3.1l4-4l3.1-2.2l1.5-0.9l0.3-0.6l-4.3,0.6l-5,1.5l-4.6,1.9l-4.6,3.1l-4.3,3.7l-2.2,2.8l-2.2,3.1l-2.5,5.9l-0.9,0.9h-2.5
	l-1.5-1.9l0.3-2.5l2.5-5.3l3.1-4.3l3.4-4l3.7-3.1l4.3-2.8l5-2.5l5.3-1.9l4-0.9l-2.8-0.9l-5.9-1.2h-7.7l-5.3,1.2l-2.8,1.2l-4.6,3.1
	h-2.2l-1.2-1.2l-0.3-1.9l0.9-2.2l3.4-2.2l5.6-2.5l7.7-1.9h5.6l6.2,1.2l4.6,1.9l3.4,1.9l1.2,0.6l-1.2-2.2l-3.7-4l-3.1-2.2l-4.3-2.2
	l-3.1-0.9l-4.3-0.6l-1.2-1.2l-0.3-2.2l0.9-1.5l0.6-0.6h3.4l5.9,1.5l5,2.5l3.4,2.5l2.5,2.2l2.8,3.4l1.9,3.4l0.6,0.3l0.6-1.9l3.1-4.3
	l3.7-3.7l4.3-2.8l4-1.9L238.7,201.4z"/>
<path class="st3" d="M151.3,300.3h43.4l4.3,0.6l5.3,2.2l3.1,2.2l4.3,3.4l2.2,0.9h5l3.7-1.9l2.8-2.2l3.1-2.5l4.6-2.2l1.9-0.6h45.3
	l3.7,0.3l1.5,1.2l0.3,2.5l-1.2,0.9h-48.7l-3.4,1.2l-2.8,1.9l-3.4,3.1l-5,2.8l-1.5,0.3h-6.2l-3.4-1.2l-4-2.8l-2.5-2.2l-4.6-2.5
	l-4-0.6H150l-1.5-0.6l-0.3-1.5l1.2-2.2L151.3,300.3z"/>
<path class="st3" d="M243,313.9h28.5l5.9,0.3l2.2,1.2l0.9,1.2l-0.3,1.9l-0.9,0.6l-5.3-0.3h-34.7l-3.7,0.6l-2.5,1.2l-5,3.7l-2.8,2.2
	l-3.7,1.9l-4,0.6l-4-0.3l-3.4-1.2l-3.4-2.2l-3.7-3.1l-4.6-2.8l-1.2-0.3l-11.2-0.3h-16.1l-11.8,0.3l-3.4,0.6l-1.2-1.5v-1.9l1.9-1.5
	l1.5-0.6h37.8l4,0.6l5,2.5l2.8,1.9l3.4,2.8l3.7,1.9l1.5,0.3h3.7l4-1.2l3.4-2.5l3.4-3.1l4.3-2.2l3.1-0.9L243,313.9z"/>
<g>
	<rect x="333.9" y="173" class="st4" width="884.5" height="181.9"/>
	<text transform="matrix(1 0 0 1 333.8584 344.0234)" class="st5 st6 st7">WithElim</text>
</g>
</svg>
