<?xml version="1.0" encoding="utf-8"?>
<!-- Generator: Adobe Illustrator 28.1.0, SVG Export Plug-In . SVG Version: 6.00 Build 0)  -->
<svg version="1.1" id="_图层_2" xmlns="http://www.w3.org/2000/svg" xmlns:xlink="http://www.w3.org/1999/xlink" x="0px" y="0px"
	 viewBox="0 0 585 580" style="enable-background:new 0 0 585 580;" xml:space="preserve">
<style type="text/css">
	.st0{fill:#DADBCC;}
	.st1{fill:#388683;}
	.st2{fill:#042E2A;}
	.st3{fill:#DBDCCD;}
</style>
<path class="st0" d="M275,0h41l27,3l21,4l28,8l29,12l19,10l18,11l16,12l14,12l13,12l13,14l13,17l10,14l8,13l17,33l8,21l7,24l5,23
	l3,26v45l-5,30l-6,24l-7,21l-8,19l-4,7l-5,10l-5,8l-4,8l-8,11l-7,11l-9,11l-11,13l-12,13l-12,11l-13,10l-14,10l-18,11l-25,13l-29,11
	l-36,9l-26,4l-12,1h-29l-25-2l-18-3l-25-6l-26-9l-20-9l-20-10l-21-14l-16-12l-13-11l-17-17l-18-22l-13-19l-11-18l-12-23l-8-20l-8-25
	l-5-23l-3-21l-1-18v-15l2-24l5-32l10-35l8-20l8-16l6-11l12-19l10-14l12-14l12-13l14-14l14-11l14-10l22-14l24-12l19-7l18-6l25-6l29-4
	L275,0z"/>
<path class="st1" d="M275,0h41l27,3l21,4l28,8l29,12l19,10l18,11l16,12l14,12l13,12l13,14l13,17l10,14l8,13l17,33l8,21l7,24l5,23
	l3,26v45l-5,30l-6,24l-7,21l-8,19l-4,7l-5,10l-5,8l-4,8l-8,11l-7,11l-9,11l-11,13l-12,13l-12,11l-13,10l-14,10l-18,11l-25,13l-29,11
	l-36,9l-26,4l-12,1h-29l-25-2l-18-3l-25-6l-26-9l-20-9l-20-10l-21-14l-16-12l-13-11l-17-17l-18-22l-13-19l-11-18l-12-23l-8-20l-8-25
	l-5-23l-3-21l-1-18v-15l2-24l5-32l10-35l8-20l8-16l6-11l12-19l10-14l12-14l12-13l14-14l14-11l14-10l22-14l24-12l19-7l18-6l25-6l29-4
	L275,0z M274,18l-17,2l-34,6l-24,7l-25,10l-17,9l-18,11l-16,12l-13,11L97,98l-9,9l-9,11l-8,10l-7,10l-8,13l-10,18l-5,11l-8,21l-7,25
	l-5,26l-2,17v43l2,17h37v9l5,3l164,1l16,2l15,8l14,9l10,4l6,1h11l10-2l9-4l12-7l10-7l10-4l7-1h81l89,1l7-1l2-8l-1-3l29-1l1-2l2-22
	v-29l-2-23l-6-29l-8-27l-8-20l-10-20l-10-16l-10-15l-11-14l-11-12l-15-15l-11-9l-15-11l-15-10l-27-14l-20-8l-24-7l-25-5l-22-3H274z"
	/>
<path class="st2" d="M275,0h41l27,3l21,4l28,8l29,12l19,10l18,11l16,12l14,12l13,12l13,14l13,17l10,14l8,13l17,33l8,21l7,24l5,23
	l3,26v45l-5,30l-6,24l-7,21l-8,19l-4,7l-5,10l-5,8l-4,8l-8,11l-7,11l-9,11l-11,13l-12,13l-12,11l-13,10l-14,10l-18,11l-25,13l-29,11
	l-36,9l-26,4l-12,1h-29l-25-2l-18-3l-25-6l-26-9l-20-9l-20-10l-21-14l-16-12l-13-11l-17-17l-18-22l-13-19l-11-18l-12-23l-8-20l-8-25
	l-5-23l-3-21l-1-18v-15l2-24l5-32l10-35l8-20l8-16l6-11l12-19l10-14l12-14l12-13l14-14l14-11l14-10l22-14l24-12l19-7l18-6l25-6l29-4
	L275,0z M274,18l-17,2l-34,6l-24,7l-25,10l-17,9l-18,11l-16,12l-13,11L97,98l-9,9l-9,11l-8,10l-7,10l-8,13l-10,18l-5,11l-8,21l-7,25
	l-5,26l-2,17v43l3,25l9,35l11,27l10,21l14,23l12,16l9,10l7,8l16,16l14,11l10,8l18,11l19,11l30,12l23,7l17,4l33,4h41l36-5l26-7l29-11
	l27-14l19-12l14-11l16-13l1-3l4-2l22-24l12-17l11-18l13-27l8-21l6-19l5-27l2-12l1-13v-29l-2-23l-6-29l-8-27l-8-20l-10-20l-10-16
	l-10-15l-11-14l-11-12l-15-15l-11-9l-15-11l-15-10l-27-14l-20-8l-24-7l-25-5l-22-3H274z"/>
<path class="st2" d="M365,49h8l6,4l2,3l-1,6l-4,5l-24,5l-16,8l-9,6l-8,8l-9,14l12-7l16-7l14-4l5-1h26l19,4l15,6l11,6l8,7l2,4l-1,6
	l-4,5h-8l-18-11l-11-4l-17-4h-20l-14,3l-12,4h-2v3l10,1l15,4l15,6l11,6l14,11l14,14l10,14l8,15l3,9l-1,8l-5,4l-8-1l-5-8l-8-17l-9-12
	l-9-10l-17-12l-19-9l-24-6h-5l14,10l11,10l9,11l8,11l8,14l7,19l3,15l1,18l-2,9l-5,4l-7-1l-3-3l-1-4l-1-16l-4-19l-7-17l-6-11l-7-9
	l-12-13l-16-13l-8-4v181l36,2l-3,2l-11,6l-17,12l-4,1h-16l-9-3l-18-10l-12-8v-1h36V221l1-76l-12,6l-10,8l-9,8l-7,8l-7,10l-7,12
	l-6,17l-3,18l-1,18l-3,5l-3,2l-7-1l-4-5l-1-4v-12l2-15l7-23l8-16l8-12l8-10l13-13l10-7l5-3l1-2l-14,2l-16,5l-15,6l-15,10l-14,12
	l-7,9l-7,10l-8,19l-3,3h-8l-5-6l1-8l8-17l10-14l11-13l12-10l14-9l16-8l17-6l13-3l-9-3l-19-4h-25l-17,4l-9,4l-15,10h-7l-4-4l-1-6l3-7
	l11-7l18-8l25-6h18l20,4l15,6l11,6l4,2l-4-7l-12-13l-10-7l-14-7l-10-3l-14-2l-4-4l-1-7l3-5l2-2h11l19,5l16,8l11,8l8,7l9,11l6,11l2,1
	l2-6l10-14l12-12l14-9l13-6L365,49z"/>
<path class="st3" d="M83,368h140l14,2l17,7l10,7l14,11l7,3h16l12-6l9-7l10-8l15-7l6-2h146l12,1l5,4l1,8l-4,3H356l-11,4l-9,6l-11,10
	l-16,9l-5,1h-20l-11-4l-13-9l-8-7l-15-8l-13-2H79l-5-2l-1-5l4-7L83,368z"/>
<path class="st3" d="M379,412h92l19,1l7,4l3,4l-1,6l-3,2l-17-1H367l-12,2l-8,4l-16,12l-9,7l-12,6l-13,2l-13-1l-11-4l-11-7l-12-10
	l-15-9l-4-1l-36-1h-52l-38,1l-11,2l-4-5v-6l6-5l5-2h122l13,2l16,8l9,6l11,9l12,6l5,1h12l13-4l11-8l11-10l14-7l10-3L379,412z"/>
</svg>
