<?xml version="1.0" encoding="utf-8"?>
<!-- Generator: Adobe Illustrator 28.1.0, SVG Export Plug-In . SVG Version: 6.00 Build 0)  -->
<svg version="1.1" id="_图层_2" xmlns="http://www.w3.org/2000/svg" xmlns:xlink="http://www.w3.org/1999/xlink" x="0px" y="0px"
	 viewBox="0 0 147.7 234.7" style="enable-background:new 0 0 147.7 234.7;" xml:space="preserve">
<style type="text/css">
	.st0{fill:#231815;}
</style>
<g id="_图层_1-2">
	<g>
		<path class="st0" d="M51.1,100.4c-5,0-9.5,0-13.9,0c-10.8,0-21.7-0.1-32.5,0.1C1.1,100.5,0,99.4,0,95.9c0.2-12.2,0.1-24.3,0-36.5
			c0-3.3,1.3-4.3,4.4-4.3c13.5,0.1,27,0,40.5,0c1.8,0,3.6,0,5.8,0c0.1-2.3,0.3-4.1,0.3-5.8c0-14.3,0.3-28.7-0.1-43
			c-0.1-5.3,1.6-6.5,6.5-6.3c11,0.3,22,0.3,33,0c4.7-0.1,6.4,1.1,6.3,6.1c-0.3,14.3-0.1,28.7-0.1,43c0,1.8,0,3.6,0,6.1
			c5,0,9.4,0,13.9,0c10.8,0,21.7,0,32.5,0c2.1,0,4.6-0.4,4.6,3c0,13.8,0,27.6,0,42.1h-51v6.9c0,40.2,0,80.3,0,120.5
			c0,4.6-2.4,6.9-7.2,6.9c-10.7,0-21.4-0.2-32,0.1c-4.9,0.2-6.5-1-6.5-6.3c0.2-40.3,0.1-80.7,0.1-121
			C51.1,105.2,51.1,103.1,51.1,100.4L51.1,100.4z M54,3.3c0,2.1,0,3.9,0,5.7c0,14.8-0.1,29.7,0.1,44.5c0,3.4-1,4.7-4.6,4.6
			c-11-0.2-22-0.1-33-0.1c-4.3,0-8.6,0-13.2,0v39.4c2.1,0,3.8,0,5.6,0c13,0,26,0.2,39-0.1c4.8-0.1,6.2,1.2,6.2,6.1
			c-0.2,40.5-0.1,81-0.1,121.5c0,2.1,0,4.2,0,6.4h39.7c0-2.2,0-4.2,0-6.1c0-40.7,0.1-81.3-0.1-122c0-4.6,1.3-6,5.9-5.8
			c12.5,0.3,25,0.1,37.5,0.1c2.4,0,4.9,0,7.3,0V58.1c-2.2,0-4,0-5.9,0c-13.3,0-26.7-0.1-40,0.1c-3.8,0-4.9-1.2-4.8-4.9
			c0.2-14.8,0.1-29.7,0.1-44.5c0-1.8-0.2-3.6-0.2-5.4L54,3.3L54,3.3z"/>
		<path class="st0" d="M10,90.7V63.4h50V9.2h27.3v53.9h50.7v27.4H87.8v135.2c-8.9,0-17.3,0.1-25.7-0.1c-0.6,0-1.6-1.5-1.8-2.4
			c-0.3-1.4-0.1-3-0.1-4.5c0-40.5,0-81,0-121.5c0-2,0-4,0-6.6L10,90.7L10,90.7z"/>
	</g>
</g>
</svg>
